<?xml version="1.0" encoding="utf-8"?>
<!-- Generator: Adobe Illustrator 21.0.2, SVG Export Plug-In . SVG Version: 6.00 Build 0)  -->
<svg version="1.1" id="Nuevo_color" xmlns="http://www.w3.org/2000/svg" xmlns:xlink="http://www.w3.org/1999/xlink" x="0px"
	 y="0px" width="385.48px" height="125.72px" viewBox="0 0 385.48 125.72" enable-background="new 0 0 385.48 125.72"
	 xml:space="preserve">
<g>
	<path fill="none" d="M12.17,62.865L62,112.685l49.84-49.84L62,12.975L12.17,62.865z M72.64,43.495l19.51,19.51l-19.37,19.37
		l-2.99-3l16.37-16.37l-16.51-16.52L72.64,43.495z"/>
	<polygon fill="#FFFFFF" points="69.79,79.375 72.78,82.375 92.15,63.005 72.64,43.495 69.65,46.485 86.16,63.005 	"/>
	<path fill="#FFFFFF" d="M6.2,62.865l55.8,55.82l55.82-55.82L62,7.035L6.2,62.865z M62,112.685l-49.83-49.82L62,12.975l49.84,49.87
		L62,112.685z"/>
	<path fill="#FFFFFF" d="M183.79,81.675c0,2.807-0.633,4.657-1.9,5.55c-1.348,0.917-2.95,1.386-4.58,1.34h-2
		c-0.668,0.004-1.336-0.029-2-0.1l0.02,10.29c0.884,0.128,1.776,0.195,2.67,0.2h2.75c2.068,0.009,4.127-0.267,6.12-0.82
		c1.923-0.535,3.699-1.503,5.19-2.83c1.628-1.515,2.863-3.402,3.6-5.5c0.98-2.879,1.434-5.91,1.34-8.95v-54.09h-11.21V81.675z"/>
	<rect x="254.13" y="26.765" fill="#FFFFFF" width="11.31" height="72"/>
	<polygon fill="#FFFFFF" points="356.71,26.775 349,77.875 340.7,26.745 325,26.745 325,98.745 334.84,98.745 334.84,47.845 
		343.27,98.745 354,98.745 361.78,47.125 361.78,98.775 372.44,98.775 372.44,26.775 	"/>
</g>
</svg>
