<?xml version="1.0" encoding="utf-8"?>
<!-- Generator: Adobe Illustrator 21.0.2, SVG Export Plug-In . SVG Version: 6.00 Build 0)  -->
<svg version="1.1" id="Capa_1" xmlns="http://www.w3.org/2000/svg" xmlns:xlink="http://www.w3.org/1999/xlink" x="0px" y="0px"
	 viewBox="0 0 15 15" style="enable-background:new 0 0 15 15;" xml:space="preserve">
<style type="text/css">
	.st0{fill:#E5EAF6;}
</style>
<title>Recurso 1</title>
<g>
	<path class="st0" d="M14.6,6.3L8.7,0.5c-0.6-0.6-1.8-0.6-2.4,0L5.1,1.7C4.9,1.4,4.5,1.1,4,1.1H3.2C2.5,1.1,2,1.6,2,2.2v2.5L0.4,6.3
		C0,6.6-0.1,7.1,0.1,7.6c0.2,0.5,0.7,0.8,1.3,0.9v4.8c0,1,0.9,1.7,1.9,1.7h8.4c1,0,1.8-0.7,1.7-1.6V8.5c0.7,0,1.3-0.4,1.5-0.9
		C15.1,7.2,15,6.7,14.6,6.3z M3,2.2c0,0,0.1-0.1,0.2-0.1H4c0.1,0,0.2,0.1,0.2,0.1v0.4L3,3.7V2.2z M12.4,13.4c0,0.3-0.4,0.6-0.8,0.6
		H3.3c-0.4,0-0.8-0.3-0.8-0.6V8.5h9.9V13.4z M13.4,7.5H1.6c-0.2,0-0.4-0.2-0.5-0.3C1,7.1,1,7.1,1.1,7l1.7-1.7c0.1,0,0.1-0.1,0.1-0.1
		l4-4C7.1,1.1,7.3,1,7.5,1S7.9,1.1,8,1.2L13.8,7c0.1,0.1,0.1,0.2,0.1,0.2C13.9,7.4,13.7,7.5,13.4,7.5z"/>
	<path class="st0" d="M6.9,12.9h1.2c0.9,0,1.6-0.7,1.6-1.8c0-0.9-0.7-1.6-1.6-1.6H6.9c-0.9,0-1.6,0.8-1.6,1.8
		C5.3,12.2,6,12.9,6.9,12.9z M6.9,10.6h1.2c0.3,0,0.6,0.3,0.6,0.7c0,0.3-0.3,0.6-0.6,0.6H6.9c-0.3,0-0.6-0.3-0.6-0.7
		C6.3,10.9,6.6,10.6,6.9,10.6z"/>
</g>
</svg>
