<?xml version="1.0" encoding="utf-8"?>
<!-- Generator: Adobe Illustrator 21.0.2, SVG Export Plug-In . SVG Version: 6.00 Build 0)  -->
<svg version="1.1" id="Capa_1" xmlns="http://www.w3.org/2000/svg" xmlns:xlink="http://www.w3.org/1999/xlink" x="0px" y="0px"
	 viewBox="0 0 15 15" style="enable-background:new 0 0 15 15;" xml:space="preserve">
<style type="text/css">
	.st0{fill:#E5EAF6;}
</style>
<title>Recurso 3</title>
<g>
	<path class="st0" d="M12.5,0H2.6C1.1,0,0,1.1,0,2.6v9.8C0,13.9,1.1,15,2.6,15h9.8c1.5,0,2.6-1.1,2.6-2.5V2.6C15,1.1,13.9,0,12.5,0z
		 M2.6,1h9.8C13.3,1,14,1.7,14,2.6v8.3H1V2.6C1,1.7,1.7,1,2.6,1z M12.5,14H2.6C1.7,14,1,13.3,1,12.5V12h13v0.5
		C14,13.3,13.3,14,12.5,14z"/>
	<path class="st0" d="M3.3,4.7h8.4c0.3,0,0.5-0.3,0.5-0.6c0-0.3-0.2-0.5-0.5-0.5H3.3C3,3.6,2.8,3.8,2.8,4.1C2.8,4.4,3,4.7,3.3,4.7z"
		/>
	<path class="st0" d="M3.3,7.4h8.4c0.3,0,0.5-0.2,0.5-0.5c0-0.3-0.2-0.5-0.5-0.5H3.3C3,6.4,2.8,6.6,2.8,6.9C2.8,7.2,3,7.4,3.3,7.4z"
		/>
</g>
</svg>
