<?xml version="1.0" encoding="utf-8"?>
<!-- Generator: Adobe Illustrator 21.0.2, SVG Export Plug-In . SVG Version: 6.00 Build 0)  -->
<svg version="1.1" id="Capa_1" xmlns="http://www.w3.org/2000/svg" xmlns:xlink="http://www.w3.org/1999/xlink" x="0px" y="0px"
	 viewBox="0 0 15 15" style="enable-background:new 0 0 15 15;" xml:space="preserve">
<style type="text/css">
	.st0{fill:#E5EAF6;}
</style>
<title>Recurso 9</title>
<g>
	<path class="st0" d="M14.8,0.1c-0.1-0.1-0.3-0.1-0.4,0L13.5,1H7.7L0.4,8.4C0.2,8.5,0.1,8.8,0.1,9s0.1,0.5,0.3,0.6l5.1,5.1
		C5.7,14.9,5.9,15,6.1,15c0.2,0,0.5-0.1,0.6-0.3l7.1-7.3V1.4l0.9-0.9C14.9,0.3,14.9,0.2,14.8,0.1z M13.4,7.2l-7,7.2
		c-0.1,0.1-0.4,0.1-0.5,0L0.7,9.3c-0.1-0.1-0.1-0.4,0-0.5l7.2-7.2H13l-1.2,1.2c-0.2-0.1-0.4-0.2-0.7-0.2c-0.7,0-1.3,0.6-1.3,1.3
		S10.4,5,11.1,5s1.3-0.6,1.3-1.3c0-0.3-0.1-0.5-0.2-0.7l1.2-1.2V7.2z M11.9,3.8c0,0.4-0.3,0.8-0.8,0.8c-0.4,0-0.8-0.3-0.8-0.8
		S10.7,3,11.1,3c0.1,0,0.2,0,0.3,0.1l-0.5,0.5c-0.1,0.1-0.1,0.3,0,0.4C11,4,11.1,4,11.1,4s0.1,0,0.2-0.1l0.5-0.5
		C11.8,3.5,11.9,3.6,11.9,3.8z"/>
	<path class="st0" d="M10.6,7.8l-2.7,2.7c-0.1,0.1-0.1,0.3,0,0.4c0,0,0.1,0.1,0.2,0.1s0.1,0,0.2-0.1l2.7-2.7c0.1-0.1,0.1-0.3,0-0.4
		S10.7,7.7,10.6,7.8z"/>
	<path class="st0" d="M11.4,6.9c0,0-0.1,0.1-0.1,0.2c0,0.1,0,0.1,0.1,0.2c0,0,0.1,0.1,0.2,0.1c0.1,0,0.1,0,0.2-0.1
		c0,0,0.1-0.1,0.1-0.2c0-0.1,0-0.1-0.1-0.2C11.7,6.8,11.5,6.8,11.4,6.9z"/>
	<path class="st0" d="M9.3,4.8c0.1-0.1,0.1-0.3,0-0.4C9.2,4.4,9.1,4.4,9,4.5L6.3,7.1c-0.1,0.1-0.1,0.3,0,0.4c0,0,0.1,0.1,0.2,0.1
		s0.1,0,0.2-0.1L9.3,4.8z"/>
	<path class="st0" d="M8.4,7.8c0,0,0.1,0.1,0.2,0.1s0.1,0,0.2-0.1l1.8-1.8c0.1-0.1,0.1-0.3,0-0.4s-0.3-0.1-0.4,0L8.4,7.5
		C8.3,7.6,8.3,7.7,8.4,7.8z"/>
	<path class="st0" d="M7,8.9L6.7,9.2c-0.1,0.1-0.1,0.3,0,0.4c0,0,0.1,0.1,0.2,0.1S7,9.6,7,9.6l0.4-0.4c0.1-0.1,0.1-0.3,0-0.4
		S7.1,8.8,7,8.9z"/>
	<path class="st0" d="M4.4,7.2c0.1,0,0.1,0,0.2-0.1l2.7-2.7c0.1-0.1,0.1-0.3,0-0.4S6.9,4,6.8,4.1L4.2,6.8C4.1,6.9,4.1,7,4.2,7.1
		C4.2,7.2,4.3,7.2,4.4,7.2z"/>
	<path class="st0" d="M7.9,3.7c0.1,0,0.1,0,0.2-0.1c0,0,0.1-0.1,0.1-0.2c0-0.1,0-0.1-0.1-0.2C8,3.1,7.8,3.1,7.7,3.2
		c0,0-0.1,0.1-0.1,0.2s0,0.1,0.1,0.2C7.8,3.6,7.8,3.7,7.9,3.7z"/>
	<path class="st0" d="M5.6,7.8c0,0-0.1,0.1-0.1,0.2c0,0.1,0,0.1,0.1,0.2c0,0,0.1,0.1,0.2,0.1c0.1,0,0.1,0,0.2-0.1C6,8.1,6,8.1,6,8
		C6,7.9,6,7.9,6,7.8C5.9,7.7,5.7,7.7,5.6,7.8z"/>
	<path class="st0" d="M8.1,8.5c0,0,0.1-0.1,0.1-0.2c0-0.1,0-0.1-0.1-0.2C8,8.1,7.8,8.1,7.7,8.2c0,0-0.1,0.1-0.1,0.2
		c0,0.1,0,0.1,0.1,0.2c0,0,0.1,0.1,0.2,0.1S8,8.6,8.1,8.5z"/>
	<path class="st0" d="M6.2,11.9c0.2-0.2,0.2-0.5,0.2-0.8c0-0.2-0.1-0.4-0.3-0.6c-0.2-0.2-0.4-0.2-0.7-0.2l-0.7,0.1l-1-1
		C4,9.3,4.3,9.4,4.6,9.6c0.1,0.1,0.3,0.1,0.4,0s0.1-0.3,0-0.4C4.5,8.8,3.8,8.8,3.3,9.1L3.1,8.9C3,8.8,2.9,8.8,2.8,8.9
		s-0.1,0.3,0,0.4L3,9.4c-0.2,0.2-0.2,0.5-0.2,0.8c0,0.2,0.1,0.4,0.3,0.6C3.3,11,3.5,11,3.8,11l0.7-0.1l1,1C5.2,12,4.8,12,4.6,11.7
		c-0.1-0.1-0.3-0.1-0.4,0c-0.1,0.1-0.1,0.3,0,0.4c0.2,0.2,0.5,0.4,0.9,0.4c0.2,0,0.5-0.1,0.7-0.2L6,12.4c0,0,0.1,0.1,0.2,0.1
		c0.1,0,0.1,0,0.2-0.1c0.1-0.1,0.1-0.3,0-0.4L6.2,11.9z M3.7,10.5c-0.1,0-0.2,0-0.3-0.1c-0.1-0.1-0.1-0.2-0.1-0.3
		c0-0.1,0-0.3,0.1-0.4L4,10.5L3.7,10.5z M5.4,10.8c0.1,0,0.2,0,0.3,0.1c0.1,0.1,0.1,0.2,0.1,0.3c0,0.1,0,0.3-0.1,0.4l-0.7-0.7
		L5.4,10.8z"/>
</g>
</svg>
