<?xml version="1.0" encoding="utf-8"?>
<!-- Generator: Adobe Illustrator 21.0.2, SVG Export Plug-In . SVG Version: 6.00 Build 0)  -->
<svg version="1.1" id="Capa_1" xmlns="http://www.w3.org/2000/svg" xmlns:xlink="http://www.w3.org/1999/xlink" x="0px" y="0px"
	 viewBox="0 0 15 15" style="enable-background:new 0 0 15 15;" xml:space="preserve">
<style type="text/css">
	.st0{fill:#E2EBF7;}
</style>
<title>Recurso 9</title>
<g>
	<path class="st0" d="M4.3,11.7H8c0.2,0,0.3-0.1,0.3-0.3V7.7c0-0.2-0.1-0.3-0.3-0.3H4.3C4.2,7.4,4,7.5,4,7.7v3.7
		C4,11.6,4.2,11.7,4.3,11.7z M7.8,8v1l-1-1H7.8z M4.6,8.3l1.7,1.7c0.1,0.1,0.1,0.1,0.2,0.1c0.1,0,0.1,0,0.2-0.1
		c0.1-0.1,0.1-0.3,0-0.4L5,8h1l1.8,1.8v1.4H6.4L4.6,9.3V8.3z M4.6,10.1l1.1,1.1H4.6V10.1z"/>
	<path class="st0" d="M7,10.8c0.1,0.1,0.1,0.1,0.2,0.1s0.1,0,0.2-0.1c0.1-0.1,0.1-0.3,0-0.4l-0.1-0.1c-0.1-0.1-0.3-0.1-0.4,0
		C6.8,10.4,6.8,10.6,7,10.8L7,10.8z"/>
	<path class="st0" d="M12.5,5.2h-2.4c-0.2,0-0.3,0.1-0.3,0.3v6c0,0.2,0.1,0.3,0.3,0.3h2.4c0.2,0,0.3-0.1,0.3-0.3v-6
		C12.8,5.3,12.7,5.2,12.5,5.2z M12.2,5.7v0.4l-0.4-0.4H12.2z M10.3,5.7h0.8l1.1,1.1v0.9l-1.9-1.9c0,0,0,0,0,0V5.7z M12.2,8.5v1
		l-1.9-1.9c0,0,0,0,0,0v-1L12.2,8.5z M10.3,11.2v-1.1l1.1,1.1H10.3z M12.2,11.2L12.2,11.2L12.2,11.2l-1.9-1.9v-1l1.9,1.9V11.2z"/>
	<path class="st0" d="M4.3,6H8c0.2,0,0.3-0.1,0.3-0.3V2c0-0.2-0.1-0.3-0.3-0.3H4.3C4.2,1.7,4,1.8,4,2v3.7C4,5.8,4.2,6,4.3,6z
		 M7.8,2.2v1l-1-1H7.8z M6,2.2l1.8,1.8v1L5,2.2H6z M4.6,2.6l2.8,2.8h-1L4.6,3.6V2.6z M4.6,4.4l1.1,1.1H4.6V4.4z"/>
	<path class="st0" d="M14.1,12.1h-0.3V4.5c0-0.2-0.1-0.3-0.3-0.3H9.3V1c0-0.2-0.1-0.3-0.3-0.3H3.3C3.2,0.7,3,0.8,3,1v11.2H2.8V4.3
		c0-0.6-0.5-1.2-1.2-1.2H1c-0.2,0-0.3,0.1-0.3,0.3c0,0.2,0.1,0.3,0.3,0.3h0.6c0.3,0,0.6,0.3,0.6,0.6v7.6c-0.1,0-0.2,0-0.3,0
		c-0.7,0-1.3,0.6-1.3,1.3c0,0.7,0.6,1.3,1.3,1.3c0.7,0,1.3-0.6,1.3-1.3c0-0.1,0-0.2-0.1-0.4h8.7c-0.1,0.2-0.1,0.3-0.1,0.5
		c0,0.6,0.5,1.1,1.1,1.1c0.6,0,1.1-0.5,1.1-1.1c0-0.2-0.1-0.4-0.1-0.5h0.5c0.2,0,0.3-0.1,0.3-0.3C14.4,12.3,14.2,12.1,14.1,12.1z
		 M1.9,13.8c-0.4,0-0.7-0.3-0.7-0.7c0-0.4,0.3-0.7,0.7-0.7s0.7,0.3,0.7,0.7C2.6,13.4,2.3,13.8,1.9,13.8z M8.8,12.1H3.6V7h5.2V12.1z
		 M8.8,4.5v1.9H3.6V1.2h5.2V4.5z M9.3,12.1V4.8h3.9v7.4H9.3z M12.7,13.8c-0.3,0-0.5-0.2-0.5-0.5c0-0.3,0.2-0.5,0.5-0.5
		c0.3,0,0.5,0.2,0.5,0.5C13.2,13.5,13,13.8,12.7,13.8z"/>
</g>
</svg>
