<?xml version="1.0" encoding="utf-8"?>
<!-- Generator: Adobe Illustrator 21.0.2, SVG Export Plug-In . SVG Version: 6.00 Build 0)  -->
<svg version="1.1" id="Capa_1" xmlns="http://www.w3.org/2000/svg" xmlns:xlink="http://www.w3.org/1999/xlink" x="0px" y="0px"
	 viewBox="0 0 15 15" style="enable-background:new 0 0 15 15;" xml:space="preserve">
<style type="text/css">
	.st0{fill:#E2EBF7;}
</style>
<title>Recurso 9</title>
<g>
	<path class="st0" d="M14.1,8.8c-0.4-0.5-0.8-0.5-1.8,0L10.4,10c-0.3,0.2-0.9,0.2-1.4,0.2C9.1,10,9,9.7,8.8,9.4
		C8.6,9.2,8.4,9,8.1,8.8c0.5-0.4,0.7-0.9,0.7-1.5c0-1.1-0.9-2-2-2s-2,0.9-2,2c0,0.3,0.1,0.6,0.2,0.9c0,0,0,0,0,0
		C4.2,7.6,2.9,7.5,2.3,7.5V6.8H0.8V14h1.6v-0.7h2.9c0.4,0,0.9,0,1.4-0.1l2.9-0.4c0.1,0,0.2,0,0.3,0c0.3,0,0.5-0.2,0.7-0.4L14,9.7
		C14.3,9.5,14.3,9.1,14.1,8.8z M5.3,7.3c0-0.9,0.7-1.6,1.6-1.6s1.6,0.7,1.6,1.6c0,0.6-0.3,1.1-0.8,1.4c-0.1,0-0.2,0-0.4,0H6.3
		c-0.1,0-0.3,0-0.4-0.1C5.5,8.2,5.3,7.8,5.3,7.3z M1.9,13.6H1.2V7.3h0.7v0.2v5.8V13.6z M13.7,9.4L10.3,12l0,0
		c-0.2,0.1-0.3,0.2-0.5,0.2h0c-0.1,0-0.2,0-0.2,0l-3,0.4c-0.4,0.1-0.9,0.1-1.3,0.1H2.3V7.9c0.5,0,1.7,0.1,2.4,0.6
		c0.3,0.2,0.6,0.4,1,0.4l0,0h0c0.2,0,0.3,0,0.5,0h0.9c0.5,0,1,0.2,1.3,0.7c0.1,0.1,0.1,0.3,0.1,0.3c-0.1,0.1-0.3,0.2-0.6,0.2
		c-0.1,0-0.2,0-0.2,0l0,0c0,0,0,0,0,0H5.5h0c-0.7,0-1.1,0.3-1.1,0.9c0,0.1,0.1,0.2,0.2,0.2c0.1,0,0.2-0.1,0.2-0.2
		c0-0.1,0-0.4,0.7-0.4h2.2c0.1,0,0.2,0,0.3,0c0,0,0.1,0,0.1,0c1.1,0,2,0,2.6-0.3l1.9-1.2c0.9-0.5,1-0.4,1.2-0.1
		C13.8,9.2,13.8,9.3,13.7,9.4z"/>
	<path class="st0" d="M10.2,5c1.1,0,2-0.9,2-2s-0.9-2-2-2s-2,0.9-2,2S9.1,5,10.2,5z M10.2,1.4c0.9,0,1.6,0.7,1.6,1.6
		s-0.7,1.6-1.6,1.6C9.3,4.6,8.6,3.9,8.6,3S9.3,1.4,10.2,1.4z"/>
	<path class="st0" d="M8,7.3c0-0.6-0.5-1.1-1.1-1.1S5.7,6.6,5.7,7.3s0.5,1.1,1.1,1.1S8,7.9,8,7.3z M6.2,7.3c0-0.4,0.3-0.7,0.7-0.7
		c0.4,0,0.7,0.3,0.7,0.7c0,0.4-0.3,0.7-0.7,0.7C6.5,7.9,6.2,7.7,6.2,7.3z"/>
	<path class="st0" d="M10.2,4.1c0.6,0,1.1-0.5,1.1-1.1s-0.5-1.1-1.1-1.1C9.6,1.9,9.1,2.4,9.1,3S9.6,4.1,10.2,4.1z M10.2,2.3
		c0.4,0,0.7,0.3,0.7,0.7c0,0.4-0.3,0.7-0.7,0.7C9.8,3.7,9.5,3.4,9.5,3C9.5,2.6,9.8,2.3,10.2,2.3z"/>
</g>
</svg>
