<?xml version="1.0" encoding="utf-8"?>
<!-- Generator: Adobe Illustrator 21.0.2, SVG Export Plug-In . SVG Version: 6.00 Build 0)  -->
<svg version="1.1" id="Capa_1" xmlns="http://www.w3.org/2000/svg" xmlns:xlink="http://www.w3.org/1999/xlink" x="0px" y="0px"
	 viewBox="0 0 15 15" style="enable-background:new 0 0 15 15;" xml:space="preserve">
<style type="text/css">
	.st0{fill:#E2EBF7;}
</style>
<path class="st0" d="M14.3,5.4c0-0.4-0.5-0.7-1.4-0.9c0-0.1,0-0.1,0-0.2V2.7h0c-0.1-1.3-5.5-1.4-6.2-1.4c-0.6,0-6.1,0-6.2,1.4h0v1.6
	c0,0.4,0.6,0.8,1.4,1c0,0,0,0.1,0,0.1h0V7C1.1,7.3,0.7,7.6,0.7,8h0v1.6c0,0.3,0.3,0.6,0.7,0.8c0,0,0,0.1,0,0.1h0v1.6
	c0,0.8,1.7,1.2,3.6,1.5c0,0,0,0,0,0c0,0,0,0,0,0c0.4,0,0.7,0.1,1.1,0.1c0,0,0,0,0,0c0,0,0,0,0,0c0.5,0,0.9,0,1.4,0s0.9,0,1.4,0
	c0,0,0,0,0,0c0,0,0,0,0,0c0.4,0,0.7-0.1,1.1-0.1c0,0,0,0,0,0c0,0,0,0,0,0c1.9-0.2,3.6-0.7,3.6-1.5v-1.6h0c0-0.3-0.3-0.5-0.7-0.7
	c0-0.1,0-0.1,0-0.2V8.1c0.8-0.3,1.4-0.6,1.4-1L14.3,5.4L14.3,5.4z M1.8,4.8C1.3,4.6,1.1,4.4,1.1,4.3V3.4c0.2,0.1,0.4,0.2,0.7,0.3
	V4.8z M1.1,2.7c0-0.3,1.9-0.9,5.7-0.9c3.8,0,5.7,0.6,5.7,0.9c0,0.2-0.4,0.4-1,0.6c-0.8,0.2-2.1,0.5-3.7,0.5c-0.1,0-0.2,0-0.2,0
	c-0.1,0-0.1,0-0.2,0c-0.2,0-0.4,0-0.6,0c-0.2,0-0.4,0-0.6,0c-0.1,0-0.1,0-0.2,0c-0.1,0-0.2,0-0.2,0C4.2,3.8,2.9,3.5,2.1,3.3
	C1.5,3.1,1.1,2.9,1.1,2.7z M12.5,3.4v0.9c0,0,0,0.1-0.1,0.1l0,0l-0.1,0.1c-0.1,0.1-0.3,0.2-0.5,0.3V3.7C12.1,3.6,12.3,3.5,12.5,3.4z
	 M11.4,3.8v1.1C11.2,5,10.9,5,10.7,5.1V4C10.9,3.9,11.2,3.9,11.4,3.8z M10.2,4v1.1c-0.2,0-0.4,0.1-0.7,0.1V4.1
	C9.8,4.1,10,4.1,10.2,4z M9.1,4.2v1.1c-0.2,0-0.4,0-0.7,0.1V4.3C8.6,4.2,8.9,4.2,9.1,4.2z M8,4.3v1.1c0,0-0.1,0-0.1,0c0,0,0,0,0,0
	c-0.2,0-0.3,0-0.5,0c0,0,0,0-0.1,0c-0.1,0-0.2,0-0.2,0V4.3c0.1,0,0.1,0,0.2,0l0,0C7.5,4.3,7.7,4.3,8,4.3z M6.6,4.3v1.1
	c-0.3,0-0.6,0-0.9,0V4.3c0.2,0,0.5,0,0.7,0c0,0,0,0,0,0C6.5,4.3,6.5,4.3,6.6,4.3z M5.2,4.3v1.1c-0.2,0-0.5,0-0.7-0.1V4.2
	C4.8,4.2,5,4.2,5.2,4.3z M4.1,4.1v1.1c0,0-0.1,0-0.1,0c0,0-0.1,0-0.1,0c-0.1,0-0.3,0-0.4-0.1c0,0,0,0-0.1,0V4
	C3.6,4.1,3.8,4.1,4.1,4.1z M2.2,4.9V3.8C2.5,3.9,2.7,3.9,2.9,4v1.1c0,0-0.1,0-0.1,0C2.7,5,2.6,5,2.5,5C2.4,5,2.3,4.9,2.2,4.9z
	 M2.5,6.1c0.2,0.1,0.4,0.2,0.7,0.3v1.1C2.8,7.4,2.6,7.2,2.5,7.1l0,0c0,0,0,0,0,0V6.1z M2.2,7.5C2.2,7.5,2.2,7.5,2.2,7.5
	C2.5,7.8,3.2,8,4,8.2c0,0,0,0,0.1,0c0.1,0,0.1,0,0.2,0C5,8.4,5.9,8.5,6.8,8.6c0,0,0,0,0,0c0,0,0,0,0,0c0.3,0,0.6,0,0.9,0
	c0.1,0,0.3,0,0.4,0c0.2,0,0.3,0,0.5,0c0.3,0,0.6,0,0.9,0c0,0,0,0,0,0c0,0,0,0,0,0c1-0.1,1.9-0.2,2.6-0.3c-0.2,0.1-0.4,0.2-0.7,0.3
	C10.7,8.8,9.3,9,7.6,9.1c-0.1,0-0.1,0-0.2,0c-0.1,0-0.1,0-0.2,0c-0.1,0-0.3,0-0.4,0c-0.2,0-0.4,0-0.6,0c-0.1,0-0.1,0-0.2,0
	c-0.1,0-0.2,0-0.2,0C4.2,9,2.9,8.8,2.1,8.5c-0.6-0.2-1-0.4-1-0.6C1.1,7.9,1.4,7.7,2.2,7.5z M3.6,7.7V6.6c0.2,0.1,0.4,0.1,0.7,0.2
	v1.1C4,7.8,3.8,7.7,3.6,7.7z M4.8,7.9V6.8c0.2,0,0.5,0.1,0.7,0.1V8C5.3,8,5.2,8,5,8c0,0,0,0,0,0C4.9,7.9,4.8,7.9,4.8,7.9z M5.9,8.1
	V6.9C6.1,7,6.4,7,6.6,7v1.1c0,0,0,0-0.1,0c0,0-0.1,0-0.1,0c-0.1,0-0.3,0-0.4,0C6,8.1,5.9,8.1,5.9,8.1C5.9,8.1,5.9,8.1,5.9,8.1z
	 M7,8.2V7c0.2,0,0.5,0,0.7,0c0,0,0,0,0,0C7.8,7,7.9,7,8,7v1.1c-0.1,0-0.2,0-0.3,0c0,0,0,0-0.1,0C7.4,8.2,7.2,8.2,7,8.2
	C7.1,8.2,7.1,8.2,7,8.2z M8.4,8.2V7c0.1,0,0.1,0,0.2,0l0,0c0.2,0,0.5,0,0.7,0v1.1C9,8.2,8.7,8.2,8.4,8.2z M9.8,8.1V7
	c0.2,0,0.5,0,0.7-0.1v1.1c-0.1,0-0.3,0-0.4,0c0,0,0,0,0,0C10,8.1,9.9,8.1,9.8,8.1z M10.9,8V6.9c0.2,0,0.5-0.1,0.7-0.1v1.1
	c0,0,0,0,0,0c-0.1,0-0.2,0-0.3,0c-0.1,0-0.1,0-0.2,0C11,8,11,8,10.9,8z M12.3,7.8c-0.1,0-0.1,0-0.2,0c0,0,0,0-0.1,0V6.7
	c0.2,0,0.5-0.1,0.7-0.2v1.1c0,0-0.1,0-0.1,0C12.5,7.7,12.4,7.7,12.3,7.8z M12.5,8.6v0.9c0,0,0,0,0,0.1l-0.1,0.1
	c-0.1,0.1-0.3,0.2-0.6,0.3V8.9C12.1,8.8,12.3,8.7,12.5,8.6z M11.4,9.1v1.1c-0.2,0.1-0.4,0.1-0.7,0.2V9.2C10.9,9.2,11.2,9.1,11.4,9.1
	z M10.2,9.3v1.1c-0.2,0-0.4,0.1-0.7,0.1V9.4C9.8,9.4,10,9.3,10.2,9.3z M9.1,9.4v1.1c-0.1,0-0.3,0-0.4,0c0,0-0.1,0-0.1,0
	c-0.1,0-0.1,0-0.2,0V9.5C8.6,9.5,8.9,9.5,9.1,9.4z M8,9.5v1.1c0,0-0.1,0-0.1,0c-0.1,0-0.3,0-0.4,0c0,0-0.1,0-0.1,0
	c-0.1,0-0.2,0-0.2,0V9.6c0.1,0,0.1,0,0.2,0l0,0C7.5,9.5,7.7,9.5,8,9.5z M6.6,9.6v1.1c0,0-0.1,0-0.1,0c0,0,0,0-0.1,0
	c-0.1,0-0.2,0-0.3,0l0,0c-0.1,0-0.2,0-0.4,0V9.5c0.2,0,0.5,0,0.7,0c0,0,0,0,0,0C6.5,9.6,6.5,9.6,6.6,9.6z M5.2,9.5v1.1
	c-0.2,0-0.4,0-0.6,0c0,0,0,0-0.1,0c0,0,0,0,0,0V9.4C4.8,9.5,5,9.5,5.2,9.5z M4.1,9.4v1.1c-0.2,0-0.5-0.1-0.7-0.1V9.3
	C3.6,9.3,3.8,9.4,4.1,9.4z M2.9,9.2v1.1c-0.2,0-0.4-0.1-0.6-0.1c0,0-0.1,0-0.1,0c0,0,0,0,0,0V9.1C2.5,9.1,2.7,9.2,2.9,9.2z M1.7,10
	C1.3,9.8,1.1,9.7,1.1,9.6V8.6c0.2,0.1,0.4,0.2,0.7,0.3V10L1.7,10L1.7,10z M2.5,12.5c-0.4-0.2-0.7-0.3-0.7-0.5v-0.9
	c0.2,0.1,0.4,0.2,0.7,0.3V12.5z M3.6,12.8c-0.3-0.1-0.5-0.1-0.7-0.2v-1.1c0.2,0.1,0.4,0.1,0.7,0.2V12.8z M4.8,13
	c-0.2,0-0.5-0.1-0.7-0.1v-1.1c0.2,0,0.4,0.1,0.7,0.1V13z M5.9,13.2c-0.2,0-0.5,0-0.7-0.1V12c0.2,0,0.5,0,0.7,0.1V13.2z M7.3,13.2
	c-0.3,0-0.6,0-0.9,0V12c0.2,0,0.5,0,0.7,0c0,0,0,0,0,0c0.1,0,0.1,0,0.2,0V13.2z M8.6,13.2c-0.3,0-0.6,0-0.9,0v-1.1
	c0.1,0,0.1,0,0.2,0c0,0,0,0,0,0c0.2,0,0.5,0,0.7,0V13.2z M9.8,13.1c-0.2,0-0.4,0-0.7,0.1V12c0.2,0,0.5,0,0.7-0.1V13.1z M10.9,12.9
	c-0.2,0-0.4,0.1-0.7,0.1v-1.1c0.2,0,0.5-0.1,0.7-0.1V12.9z M12.1,12.7c-0.2,0.1-0.4,0.1-0.7,0.2v-1.1c0.2,0,0.5-0.1,0.7-0.2V12.7z
	 M13.2,12.1c0,0.1-0.2,0.3-0.7,0.5v-1.1c0.3-0.1,0.5-0.2,0.7-0.3V12.1z M13.2,10.5c0,0.2-0.4,0.4-1,0.6c-0.8,0.2-2.1,0.5-3.7,0.5
	c-0.1,0-0.2,0-0.2,0c-0.1,0-0.1,0-0.2,0c-0.2,0-0.4,0-0.6,0s-0.4,0-0.6,0c-0.1,0-0.1,0-0.2,0c-0.1,0-0.2,0-0.2,0
	c-1.6-0.1-2.9-0.3-3.7-0.5c-0.6-0.2-1-0.4-1-0.5c0.1,0,0.1,0,0.2,0.1c0,0,0,0,0,0c0.1,0,0.1,0,0.2,0.1c0,0,0,0,0.1,0
	c0,0,0.1,0,0.1,0c0.8,0.2,1.9,0.4,3,0.4c0,0,0,0,0,0c0.4,0,0.7,0,1.1,0c0.1,0,0.2,0,0.3,0c0.1,0,0.3,0,0.4,0c0.3,0,0.7,0,1,0
	c0,0,0,0,0,0c0,0,0,0,0,0c0.4,0,0.8-0.1,1.1-0.1c0,0,0,0,0,0c0,0,0,0,0,0c0.4,0,0.8-0.1,1.1-0.2c0.1,0,0.1,0,0.2,0c0,0,0,0,0,0
	c0.7-0.1,1.3-0.3,1.7-0.5c0,0,0,0,0.1,0c0,0,0,0,0.1,0c0,0,0,0,0.1,0C13.1,10.3,13.2,10.4,13.2,10.5z M12.9,6
	c-0.8,0.2-2.1,0.5-3.7,0.5c-0.1,0-0.2,0-0.2,0c-0.1,0-0.1,0-0.2,0c-0.2,0-0.4,0-0.6,0c-0.2,0-0.4,0-0.6,0c-0.1,0-0.1,0-0.2,0
	c-0.1,0-0.2,0-0.2,0C5.6,6.5,4.3,6.3,3.5,6c-0.6-0.2-1-0.4-1-0.6c0,0,0,0,0,0c0,0,0,0,0,0c0.1,0,0.2,0,0.3,0.1
	c0.5,0.1,1,0.2,1.5,0.2c0,0,0,0,0,0h0c0.4,0,0.7,0.1,1.1,0.1c0,0,0,0,0,0c0,0,0,0,0,0c0.3,0,0.6,0,0.8,0c0.2,0,0.3,0,0.5,0
	c0.1,0,0.2,0,0.4,0c1.7,0,3.2-0.2,4.3-0.5c0.1,0,0.1,0,0.1,0c0,0,0.1,0,0.1,0c0.1,0,0.2-0.1,0.2-0.1c0,0,0,0,0,0
	c0.1,0,0.1-0.1,0.2-0.1c0,0,0,0,0.1,0c0.1,0,0.1-0.1,0.2-0.1c0,0,0,0,0.1,0c0,0,0.1,0,0.1,0c0,0,0,0,0,0c1,0.2,1.3,0.5,1.3,0.6
	C13.9,5.6,13.5,5.8,12.9,6z M13.9,7c0,0.1-0.2,0.3-0.7,0.5V6.4c0.3-0.1,0.5-0.2,0.7-0.3V7z"/>
</svg>
