<?xml version="1.0" encoding="utf-8"?>
<!-- Generator: Adobe Illustrator 21.0.2, SVG Export Plug-In . SVG Version: 6.00 Build 0)  -->
<svg version="1.1" id="Capa_1" xmlns="http://www.w3.org/2000/svg" xmlns:xlink="http://www.w3.org/1999/xlink" x="0px" y="0px"
	 viewBox="0 0 15 15" style="enable-background:new 0 0 15 15;" xml:space="preserve">
<style type="text/css">
	.st0{fill:#E2EBF7;}
</style>
<title>message</title>
<path class="st0" d="M10.5,1.6C9.6,1.2,8.7,1,7.8,1C6.1,1,4.4,1.7,3.2,3C2,4.2,1.4,5.8,1.3,7.6c0,1.5,0.5,2.9,1.4,4
	c-1,1.1-2,2.1-2,2.1v0.2c0,0,0.1,0.1,0.2,0.1c1.5,0,2.9-0.1,4.3-0.5C6.1,13.8,6.9,14,7.8,14c2.5,0,4.9-1.4,5.9-3.8
	C15.2,6.9,13.8,3.1,10.5,1.6z M13.3,10c-1.4,3-5,4.4-8.1,3c-1.2,0.3-2.5,0.5-3.8,0.5c0.4-0.4,1.1-1.1,1.8-1.8c0.1-0.1,0.1-0.2,0-0.3
	c-0.9-1-1.4-2.4-1.4-3.8c0-1.7,0.6-3.2,1.8-4.3c1.1-1.1,2.6-1.8,4.2-1.8C8.7,1.4,9.5,1.7,10.3,2C13.3,3.4,14.7,7,13.3,10z"/>
</svg>
