<?xml version="1.0" encoding="utf-8"?>
<!-- Generator: Adobe Illustrator 21.0.2, SVG Export Plug-In . SVG Version: 6.00 Build 0)  -->
<svg version="1.1" id="Capa_1" xmlns="http://www.w3.org/2000/svg" xmlns:xlink="http://www.w3.org/1999/xlink" x="0px" y="0px"
	 viewBox="0 0 15 15" style="enable-background:new 0 0 15 15;" xml:space="preserve">
<style type="text/css">
	.st0{fill:#E2EBF7;}
</style>
<title>Recurso 5</title>
<g>
	<path class="st0" d="M14,2.6c-0.2-0.1-0.4,0-0.5,0.1l-2.7,3.5c-0.4,0.4-1,0.5-1.5,0.2L8,5.5C7.7,5.2,7.2,5.1,6.8,5.2
		C6.4,5.3,6,5.5,5.7,5.8l-4.2,6.1c-0.1,0.2-0.1,0.4,0.1,0.5c0.1,0.1,0.1,0.1,0.2,0.1c0.1,0,0.2-0.1,0.2-0.2l4.3-6
		C6.4,6,6.7,5.9,6.9,5.9c0.3-0.1,0.5,0,0.7,0.1L9,6.9c0.7,0.6,1.8,0.4,2.4-0.3l2.7-3.5C14.2,2.9,14.1,2.7,14,2.6z"/>
	<path class="st0" d="M2.6,7.5c0-0.2-0.1-0.3-0.3-0.3h-1C1.1,7.2,1,7.3,1,7.5s0.1,0.3,0.3,0.3h1C2.5,7.8,2.6,7.7,2.6,7.5z"/>
	<path class="st0" d="M13.5,8.2l-2.7,2.7c-0.4,0.4-1.1,0.5-1.5,0.1L6.9,9C6.7,8.8,6.5,8.9,6.4,9C6.3,9.1,6.3,9.3,6.5,9.4l2.4,2.1
		c0.3,0.3,0.7,0.4,1.1,0.4c0.5,0,0.9-0.1,1.3-0.5L14,8.7c0.1-0.2,0.1-0.4,0-0.5C13.8,8.1,13.6,8.1,13.5,8.2z"/>
</g>
</svg>
