<?xml version="1.0" encoding="utf-8"?>
<!-- Generator: Adobe Illustrator 21.0.2, SVG Export Plug-In . SVG Version: 6.00 Build 0)  -->
<svg version="1.1" id="Capa_1" xmlns="http://www.w3.org/2000/svg" xmlns:xlink="http://www.w3.org/1999/xlink" x="0px" y="0px"
	 viewBox="0 0 15 15" style="enable-background:new 0 0 15 15;" xml:space="preserve">
<style type="text/css">
	.st0{fill:#E2EBF7;}
</style>
<title>Recurso 6</title>
<g id="Capa_2">
	<g id="iconos">
		<g id="Tasks">
			<g>
				<path class="st0" d="M12.2,14.5H2.8c-1.3,0-2.3-1-2.3-2.3V2.8c0-1.3,1-2.3,2.3-2.3h9.4c1.3,0,2.3,1,2.3,2.3v9.4
					C14.5,13.5,13.5,14.5,12.2,14.5z M2.8,1.2c-0.9,0-1.6,0.7-1.6,1.6v9.4c0,0.9,0.7,1.6,1.6,1.6h9.4c0.9,0,1.6-0.7,1.6-1.6V2.8
					c0-0.9-0.7-1.6-1.6-1.6H2.8z"/>
			</g>
			<g>
				<path class="st0" d="M11.3,6.7H3.7c-0.2,0-0.3-0.1-0.3-0.3s0.1-0.3,0.3-0.3h7.5c0.2,0,0.3,0.1,0.3,0.3S11.4,6.7,11.3,6.7z"/>
			</g>
			<g>
				<path class="st0" d="M4.9,4.1H3.7C3.6,4.1,3.4,4,3.4,3.8c0-0.2,0.1-0.3,0.3-0.3h1.2c0.2,0,0.3,0.1,0.3,0.3
					C5.3,4,5.1,4.1,4.9,4.1z"/>
			</g>
			<g>
				<path class="st0" d="M11.3,9.1H3.7C3.6,9.1,3.4,9,3.4,8.8s0.1-0.3,0.3-0.3h7.5c0.2,0,0.3,0.1,0.3,0.3S11.4,9.1,11.3,9.1z"/>
			</g>
			<g>
				<path class="st0" d="M11.3,11.6H3.7c-0.2,0-0.3-0.1-0.3-0.3s0.1-0.3,0.3-0.3h7.5c0.2,0,0.3,0.1,0.3,0.3S11.4,11.6,11.3,11.6z"/>
			</g>
		</g>
	</g>
</g>
</svg>
