<?xml version="1.0" encoding="utf-8"?>
<!-- Generator: Adobe Illustrator 21.0.2, SVG Export Plug-In . SVG Version: 6.00 Build 0)  -->
<svg version="1.1" id="Capa_1" xmlns="http://www.w3.org/2000/svg" xmlns:xlink="http://www.w3.org/1999/xlink" x="0px" y="0px"
	 viewBox="0 0 15 15" style="enable-background:new 0 0 15 15;" xml:space="preserve">
<style type="text/css">
	.st0{fill:#E2EBF7;}
</style>
<title>Recurso 7</title>
<g id="Capa_2">
	<g id="iconos">
		<g id="calendar">
			<g>
				<path class="st0" d="M2.6,14.7c-1.2,0-2.3-1-2.3-2.3V3c0-0.2,0.2-0.3,0.3-0.3S1,2.8,1,3v9.4C1,13.3,1.7,14,2.6,14c0,0,0,0,0,0
					h9.7c0.9,0,1.6-0.7,1.6-1.6V3c0-0.2,0.2-0.3,0.3-0.3c0.2,0,0.3,0.2,0.3,0.3v9.4c0,1.3-1.1,2.3-2.3,2.3c0,0,0,0,0,0H2.6
					C2.6,14.7,2.6,14.7,2.6,14.7z"/>
			</g>
			<g>
				<path class="st0" d="M4.7,6.2H3.9C3.7,6.2,3.5,6,3.5,5.8s0.2-0.3,0.3-0.3h0.8C4.9,5.5,5,5.6,5,5.8S4.9,6.2,4.7,6.2z"/>
			</g>
			<g>
				<path class="st0" d="M7.9,6.2H7.1C6.9,6.2,6.8,6,6.8,5.8s0.2-0.3,0.3-0.3h0.8c0.2,0,0.3,0.2,0.3,0.3S8.1,6.2,7.9,6.2z"/>
			</g>
			<g>
				<path class="st0" d="M11.1,6.2h-0.8C10.1,6.2,10,6,10,5.8s0.2-0.3,0.3-0.3h0.8c0.2,0,0.3,0.2,0.3,0.3S11.3,6.2,11.1,6.2z"/>
			</g>
			<g>
				<path class="st0" d="M4.7,8.9H3.9c-0.2,0-0.3-0.2-0.3-0.3c0-0.2,0.2-0.3,0.3-0.3h0.8C4.9,8.2,5,8.4,5,8.6C5,8.8,4.9,8.9,4.7,8.9
					z"/>
			</g>
			<g>
				<path class="st0" d="M7.9,8.9H7.1c-0.2,0-0.3-0.2-0.3-0.3c0-0.2,0.2-0.3,0.3-0.3h0.8c0.2,0,0.3,0.2,0.3,0.3
					C8.3,8.8,8.1,8.9,7.9,8.9z"/>
			</g>
			<g>
				<path class="st0" d="M11.1,8.9h-0.8c-0.2,0-0.3-0.2-0.3-0.3c0-0.2,0.2-0.3,0.3-0.3h0.8c0.2,0,0.3,0.2,0.3,0.3
					C11.5,8.8,11.3,8.9,11.1,8.9z"/>
			</g>
			<g>
				<path class="st0" d="M4.7,11.7H3.9c-0.2,0-0.3-0.2-0.3-0.3S3.7,11,3.9,11h0.8C4.9,11,5,11.2,5,11.3S4.9,11.7,4.7,11.7z"/>
			</g>
			<g>
				<path class="st0" d="M7.9,11.7H7.1c-0.2,0-0.3-0.2-0.3-0.3S6.9,11,7.1,11h0.8c0.2,0,0.3,0.2,0.3,0.3S8.1,11.7,7.9,11.7z"/>
			</g>
			<g>
				<path class="st0" d="M11.1,11.7h-0.8c-0.2,0-0.3-0.2-0.3-0.3s0.2-0.3,0.3-0.3h0.8c0.2,0,0.3,0.2,0.3,0.3S11.3,11.7,11.1,11.7z"
					/>
			</g>
			<g>
				<path class="st0" d="M14.3,3.3C14.2,3.3,14,3.2,14,3V2.5C14,1.7,13.3,1,12.5,1h-10C2.1,1,1.8,1.1,1.5,1.4C1.2,1.7,1,2.1,1,2.5
					L1,3c0,0.2-0.2,0.3-0.3,0.3S0.3,3.2,0.3,3V2.5c0-0.6,0.3-1.2,0.7-1.6c0.4-0.4,1-0.6,1.6-0.6h9.9c1.2,0,2.2,1,2.2,2.2V3
					C14.7,3.2,14.5,3.3,14.3,3.3z"/>
			</g>
			<g>
				<path class="st0" d="M14.3,3.3H0.7C0.5,3.3,0.3,3.2,0.3,3c0-0.2,0.2-0.3,0.3-0.3h13.7c0.2,0,0.3,0.2,0.3,0.3
					C14.7,3.2,14.5,3.3,14.3,3.3z"/>
			</g>
		</g>
	</g>
</g>
</svg>
