<?xml version="1.0" encoding="utf-8"?>
<!-- Generator: Adobe Illustrator 21.0.2, SVG Export Plug-In . SVG Version: 6.00 Build 0)  -->
<svg version="1.1" id="Capa_1" xmlns="http://www.w3.org/2000/svg" xmlns:xlink="http://www.w3.org/1999/xlink" x="0px" y="0px"
	 viewBox="0 0 15 15" style="enable-background:new 0 0 15 15;" xml:space="preserve">
<style type="text/css">
	.st0{fill:#E5EAF5;}
</style>
<title>Recurso 10</title>
<path class="st0" d="M13.9,5.1c0.3-0.4,0.4-0.8,0.4-1.2c0-1.9-2.9-3.2-6.8-3.2S0.7,2.1,0.7,4c0,0.4,0.2,0.8,0.4,1.2
	C0.8,5.5,0.7,5.9,0.7,6.3c0,0.4,0.2,0.8,0.4,1.2C0.8,7.9,0.7,8.3,0.7,8.7c0,0.4,0.2,0.8,0.4,1.2c-0.3,0.4-0.4,0.8-0.4,1.2
	c0,1.9,2.9,3.2,6.8,3.2s6.8-1.4,6.8-3.2c0-0.4-0.2-0.8-0.4-1.2c0.3-0.4,0.4-0.8,0.4-1.2c0-0.4-0.2-0.8-0.4-1.2
	c0.3-0.4,0.4-0.8,0.4-1.2C14.3,5.9,14.2,5.5,13.9,5.1z M13.4,8.7c0,0.3-0.2,0.6-0.5,0.8c0,0,0,0,0,0c0,0,0,0,0,0
	C12,10.3,10.1,11,7.5,11C4.9,11,3,10.3,2.1,9.5c0,0,0,0,0,0c0,0,0,0,0,0C1.8,9.3,1.6,9,1.6,8.7c0-0.2,0.1-0.3,0.2-0.5
	C3,9,5.1,9.6,7.5,9.6c2.4,0,4.5-0.5,5.7-1.4C13.3,8.3,13.4,8.5,13.4,8.7z M7.5,7.2c2.4,0,4.5-0.5,5.7-1.4c0.1,0.2,0.2,0.3,0.2,0.5
	c0,0.3-0.2,0.6-0.5,0.8c0,0,0,0,0,0c0,0,0,0,0,0C12,8,10.1,8.6,7.5,8.6C4.9,8.6,3,8,2.1,7.2c0,0,0,0,0,0c0,0,0,0,0,0
	C1.8,6.9,1.6,6.6,1.6,6.3c0-0.2,0.1-0.3,0.2-0.5C3,6.7,5.1,7.2,7.5,7.2z M7.5,1.7c3.5,0,5.9,1.2,5.9,2.3c0,0.3-0.2,0.6-0.5,0.8
	c0,0,0,0,0,0c0,0,0,0,0,0C12,5.6,10.1,6.3,7.5,6.3C4.9,6.3,3,5.6,2.1,4.8c0,0,0,0,0,0c0,0,0,0,0,0C1.8,4.5,1.6,4.2,1.6,4
	C1.6,2.9,4,1.7,7.5,1.7z M7.5,13.3c-3.5,0-5.9-1.2-5.9-2.3c0-0.2,0.1-0.3,0.2-0.5c1.2,0.9,3.3,1.4,5.7,1.4c2.4,0,4.5-0.5,5.7-1.4
	c0.1,0.2,0.2,0.3,0.2,0.5C13.4,12.1,11,13.3,7.5,13.3z"/>
</svg>
