<?xml version="1.0" encoding="utf-8"?>
<!-- Generator: Adobe Illustrator 21.0.2, SVG Export Plug-In . SVG Version: 6.00 Build 0)  -->
<svg version="1.1" id="Capa_1" xmlns="http://www.w3.org/2000/svg" xmlns:xlink="http://www.w3.org/1999/xlink" x="0px" y="0px"
	 viewBox="0 0 15 15" style="enable-background:new 0 0 15 15;" xml:space="preserve">
<style type="text/css">
	.st0{fill:#E5EAF5;}
</style>
<title>Recurso 11</title>
<path class="st0" d="M14.6,5.7C14.6,5.7,14.5,5.7,14.6,5.7l0-0.8c0-1-0.8-1.8-1.8-1.8c0,0,0,0,0,0H7.1V2.7c0-1-0.8-1.8-1.8-1.8H2.3
	c-1,0-1.8,0.8-1.8,1.8v9.6c0,1,0.8,1.8,1.8,1.8h10.5c1,0,1.8-0.8,1.8-1.8L14.6,5.7C14.5,5.7,14.6,5.7,14.6,5.7z M2.3,1.6h3.1
	c0.6,0,1.1,0.5,1.1,1.2v0.7c0,0.2,0.2,0.3,0.3,0.3h5.9c0.6,0,1.1,0.5,1.1,1.2v0.4H1.1V2.7C1.1,2.1,1.6,1.6,2.3,1.6z M12.7,13.4H2.3
	c-0.6,0-1.1-0.5-1.1-1.1V6.1h12.7v6.2C13.9,12.9,13.3,13.4,12.7,13.4z"/>
</svg>
