<?xml version="1.0" encoding="utf-8"?>
<!-- Generator: Adobe Illustrator 21.0.2, SVG Export Plug-In . SVG Version: 6.00 Build 0)  -->
<svg version="1.1" id="Capa_1" xmlns="http://www.w3.org/2000/svg" xmlns:xlink="http://www.w3.org/1999/xlink" x="0px" y="0px"
	 viewBox="0 0 15 14.8" style="enable-background:new 0 0 15 14.8;" xml:space="preserve">
<style type="text/css">
	.st0{fill:#E5EAF5;}
</style>
<title>Recurso 12</title>
<path class="st0" d="M14.3,6.4c0-0.1-0.1-0.2-0.2-0.3l-1.4-0.7l1.4-0.7c0.1-0.1,0.2-0.2,0.2-0.3c0-0.1-0.1-0.2-0.2-0.3L7.7,0.7
	c-0.1-0.1-0.2-0.1-0.3,0L0.8,4.2C0.7,4.3,0.7,4.4,0.7,4.5c0,0.1,0.1,0.2,0.2,0.3l1.4,0.7L0.9,6.1C0.8,6.2,0.7,6.3,0.7,6.4
	s0.1,0.2,0.2,0.3l1.4,0.7L0.9,8.1C0.8,8.1,0.7,8.2,0.7,8.4c0,0.1,0.1,0.2,0.2,0.3l1.3,0.7L0.9,10c-0.1,0.1-0.2,0.2-0.2,0.3
	c0,0.1,0.1,0.2,0.2,0.3l6.5,3.5c0,0,0.1,0,0.2,0c0.1,0,0.1,0,0.2,0l6.5-3.5c0.1-0.1,0.2-0.2,0.2-0.3c0-0.1-0.1-0.2-0.2-0.3l-1.3-0.7
	l1.3-0.7c0.1-0.1,0.2-0.2,0.2-0.3c0-0.1-0.1-0.2-0.2-0.3l-1.4-0.7l1.4-0.7C14.3,6.7,14.3,6.5,14.3,6.4z M1.7,4.5l5.8-3.1l5.8,3.1
	l-1.4,0.7c0,0,0,0,0,0l-4.3,2L1.7,4.5z M13.3,10.3l-5.8,3.1l-5.8-3.1l1.2-0.6L7.4,12c0,0,0.1,0,0.1,0s0.1,0,0.1,0l4.5-2.3L13.3,10.3
	z M13.3,8.4l-5.8,3l-5.8-3l1.2-0.5c0,0,0-0.1,0.1-0.1l4.4,2.2c0,0,0.1,0,0.1,0c0,0,0.1,0,0.1,0L12,7.8L13.3,8.4z M11.9,7.1
	c-0.1,0-0.1,0-0.2,0.1L7.5,9.3L1.7,6.4l1.3-0.6l4.3,2c0,0,0.1,0,0.1,0c0,0,0.1,0,0.1,0l4.3-2l1.3,0.6L11.9,7.1z"/>
</svg>
