<?xml version="1.0" encoding="utf-8"?>
<!-- Generator: Adobe Illustrator 21.0.2, SVG Export Plug-In . SVG Version: 6.00 Build 0)  -->
<svg version="1.1" id="Capa_1" xmlns="http://www.w3.org/2000/svg" xmlns:xlink="http://www.w3.org/1999/xlink" x="0px" y="0px"
	 viewBox="0 0 15 15" style="enable-background:new 0 0 15 15;" xml:space="preserve">
<style type="text/css">
	.st0{fill:#E5EAF6;}
</style>
<title>Recurso 13</title>
<g>
	<path class="st0" d="M2.2,8.5c0.4-0.2,1-0.3,1.4-1c0.2-0.3,0.1-0.9,0-1.2C3.5,6.1,3.3,5.9,3.2,5.8C3,5.7,2.8,5.6,2.8,4.4
		c0-1.2,0.8-2.2,1.7-2.2c0.3,0,0.5,0.1,0.8,0.2c0.1,0.1,0.3,0.2,0.4,0.3C5.8,2.9,5.9,2.9,6,2.9c0.1,0,0.2,0,0.3-0.1
		c0.2-0.2,0.2-0.4,0-0.6C6.2,2,6,1.9,5.8,1.7C5.4,1.5,5,1.3,4.5,1.3C3.1,1.3,2,2.7,2,4.4c0,1.4,0.3,1.8,0.7,2.1
		c0.1,0.1,0.1,0.1,0.2,0.2c0,0.1,0,0.3,0,0.3C2.7,7.4,2.3,7.6,2,7.7C1.3,7.9,0.4,8.2,0.4,10c0,0.6,0,1.3,1.1,1.5l0.2-0.8
		c-0.5-0.1-0.5-0.1-0.5-0.7C1.3,8.9,1.6,8.7,2.2,8.5z"/>
	<path class="st0" d="M9.1,9.6C8.7,9.5,8.4,9.3,8.2,9c0-0.1,0-0.3,0-0.4c0-0.1,0.1-0.1,0.2-0.2c0.5-0.3,0.7-0.7,0.7-2.1
		c0-1.7-1.1-3.1-2.6-3.1C5.1,3.2,4,4.6,4,6.3c0,1.4,0.3,1.8,0.7,2.1c0.1,0.1,0.1,0.1,0.2,0.2C5,8.7,5,8.9,5,9C4.7,9.3,4.4,9.5,4,9.6
		c-0.7,0.2-1.5,0.5-1.5,2.3c0,1.5,0.6,1.7,4.1,1.7c3.5,0,4.1-0.3,4.1-1.7C10.7,10.1,9.8,9.8,9.1,9.6z M6.6,12.8
		c-3.3,0-3.3-0.2-3.3-0.9c0-1.2,0.3-1.3,1-1.5c0.4-0.2,1-0.3,1.4-1c0.2-0.3,0.1-0.9,0-1.2C5.6,8,5.3,7.8,5.2,7.7
		C5,7.6,4.9,7.5,4.9,6.3c0-1.2,0.8-2.2,1.7-2.2s1.7,1,1.7,2.2c0,1.2-0.2,1.3-0.3,1.4C7.8,7.8,7.6,8,7.4,8.3c-0.1,0.2-0.2,0.8,0,1.2
		c0.4,0.6,1,0.8,1.4,1c0.6,0.2,1,0.3,1,1.5C9.8,12.6,9.8,12.8,6.6,12.8z"/>
	<path class="st0" d="M14.2,7h-0.5c0,0,0,0,0,0c0,0,0,0,0,0L14,6.6c0.1-0.1,0.1-0.2,0.1-0.3c0-0.1,0-0.2-0.1-0.3l-0.4-0.4
		c-0.1-0.1-0.4-0.1-0.6,0L12.7,6c0,0,0,0,0,0c0,0,0,0,0,0V5.5c0-0.2-0.2-0.4-0.4-0.4h-0.6c-0.2,0-0.4,0.2-0.4,0.4v0.5c0,0,0,0,0,0
		c0,0,0,0,0,0l-0.3-0.3c-0.2-0.1-0.4-0.1-0.6,0L9.8,6.1C9.7,6.1,9.6,6.2,9.6,6.3c0,0.1,0,0.2,0.1,0.3L10.1,7c0,0,0,0,0,0
		c0,0,0,0,0,0H9.6C9.4,7,9.2,7.2,9.2,7.4V8c0,0.2,0.2,0.4,0.4,0.4h0.5c0,0,0,0,0,0c0,0,0,0,0,0L9.8,8.9C9.7,8.9,9.6,9,9.6,9.1
		c0,0.1,0,0.2,0.1,0.3l0.4,0.4c0.1,0.1,0.4,0.1,0.6,0l0.3-0.3c0,0,0,0,0,0c0,0,0,0,0,0V10c0,0.2,0.2,0.4,0.4,0.4h0.6
		c0.2,0,0.4-0.2,0.4-0.4V9.6c0,0,0,0,0,0c0,0,0,0,0,0L13,9.9c0.2,0.2,0.4,0.2,0.6,0L14,9.4c0.1-0.1,0.1-0.2,0.1-0.3
		c0-0.1,0-0.2-0.1-0.3l-0.3-0.3c0,0,0,0,0,0c0,0,0,0,0,0h0.5c0.2,0,0.4-0.2,0.4-0.4V7.4C14.6,7.2,14.4,7,14.2,7z M14.1,8h-0.4
		c-0.2,0-0.4,0.1-0.5,0.3c-0.1,0.2,0,0.4,0.1,0.6l0.3,0.3l-0.3,0.3L13,9.2C12.9,9,12.6,9,12.4,9.1c-0.2,0.1-0.3,0.3-0.3,0.5V10h-0.5
		V9.6c0-0.2-0.1-0.4-0.3-0.5c-0.2-0.1-0.4,0-0.6,0.1l-0.3,0.3l-0.3-0.3l0.3-0.3c0.1-0.2,0.2-0.4,0.1-0.6C10.5,8.1,10.3,8,10.1,8H9.7
		V7.5h0.4c0.2,0,0.4-0.1,0.5-0.3c0.1-0.2,0-0.4-0.1-0.6l-0.3-0.3L10.5,6l0.3,0.3c0.2,0.1,0.4,0.2,0.6,0.1c0.2-0.1,0.3-0.3,0.3-0.5
		V5.5h0.5v0.4c0,0.2,0.1,0.4,0.3,0.5c0.2,0.1,0.4,0,0.6-0.1L13.3,6l0.3,0.3l-0.3,0.3c-0.1,0.2-0.2,0.4-0.1,0.6
		c0.1,0.2,0.3,0.3,0.5,0.3h0.4V8z"/>
	<path class="st0" d="M11.9,6.7c-0.5,0-1,0.4-1,1c0,0.5,0.4,1,1,1c0.5,0,1-0.4,1-1C12.9,7.2,12.4,6.7,11.9,6.7z M11.9,8.3
		c-0.3,0-0.5-0.2-0.5-0.5c0-0.3,0.2-0.5,0.5-0.5s0.5,0.2,0.5,0.5C12.4,8,12.2,8.3,11.9,8.3z"/>
</g>
</svg>
