<?xml version="1.0" encoding="utf-8"?>
<!-- Generator: Adobe Illustrator 21.0.2, SVG Export Plug-In . SVG Version: 6.00 Build 0)  -->
<svg version="1.1" id="Capa_1" xmlns="http://www.w3.org/2000/svg" xmlns:xlink="http://www.w3.org/1999/xlink" x="0px" y="0px"
	 viewBox="0 0 15 15" style="enable-background:new 0 0 15 15;" xml:space="preserve">
<style type="text/css">
	.st0{fill:#E5EAF5;}
</style>
<title>Recurso 13</title>
<g>
	<path class="st0" d="M7.5,0.6c-3.8,0-6.9,3.1-6.9,6.9s3.1,6.9,6.9,6.9s6.9-3.1,6.9-6.9S11.3,0.6,7.5,0.6z M7.5,13.4
		c-3.3,0-5.9-2.7-5.9-5.9s2.7-5.9,5.9-5.9c3.3,0,5.9,2.7,5.9,5.9S10.8,13.4,7.5,13.4z"/>
	<path class="st0" d="M7.5,3.3c-0.9,0-1.7,0.5-2,1.3c-0.1,0.2,0,0.5,0.2,0.6C5.9,5.4,6.2,5.3,6.3,5C6.5,4.5,7,4.3,7.5,4.3
		c0.7,0,1.3,0.6,1.3,1.3c0,0.4-0.2,0.8-0.6,1.1c0,0-1.1,1.1-1.1,2.6c0,0.3,0.2,0.5,0.5,0.5c0.3,0,0.5-0.2,0.5-0.5
		c0-1.1,0.7-1.9,0.7-1.9C9.4,7,9.7,6.3,9.7,5.6C9.7,4.3,8.7,3.3,7.5,3.3z"/>
	<circle class="st0" cx="7.6" cy="11.2" r="0.7"/>
</g>
</svg>
