<svg xmlns="http://www.w3.org/2000/svg" viewBox="0 0 11.58 11.57"><defs><style>.cls-1{fill:none;stroke:#545a73;stroke-linecap:round;stroke-linejoin:round;stroke-width:0.49px;}</style></defs><title>Recurso 15</title><g id="Capa_2" data-name="Capa 2"><g id="iconos"><g id="Setting"><path class="cls-1" d="M5.79,7.71A1.92,1.92,0,1,1,7.71,5.79,1.92,1.92,0,0,1,5.79,7.71Z"/><polygon class="cls-1" points="3.76 9.46 4.62 9.81 4.84 11.33 6.74 11.33 6.95 9.81 7.81 9.46 9.03 10.38 10.38 9.03 9.46 7.81 9.81 6.95 11.33 6.74 11.33 4.84 9.81 4.62 9.46 3.76 10.38 2.54 9.03 1.2 7.81 2.12 6.95 1.76 6.74 0.25 4.84 0.25 4.62 1.76 3.76 2.12 2.54 1.2 1.2 2.54 2.12 3.76 1.76 4.62 0.25 4.84 0.25 6.74 1.76 6.95 2.12 7.81 1.2 9.03 2.54 10.38 3.76 9.46"/></g></g></g></svg>