<svg xmlns="http://www.w3.org/2000/svg" viewBox="0 0 10.26 11.42"><defs><style>.cls-1{fill:none;}.cls-1,.cls-2{stroke:#545a73;stroke-linecap:round;stroke-linejoin:round;stroke-width:0.42px;}.cls-2{fill:#fff;}</style></defs><title>Recurso 16</title><g id="Capa_2" data-name="Capa 2"><g id="iconos"><g id="Notification"><path class="cls-1" d="M5.14,11.21a2.2,2.2,0,0,0,2-1.81H3.1a2.2,2.2,0,0,0,2,1.81Z"/><path class="cls-2" d="M5.14,11.21"/><path class="cls-1" d="M9.21,5.17v2.1h0a1.53,1.53,0,0,0,.68,1.33.45.45,0,0,1-.29.8H.66a.45.45,0,0,1-.3-.79A1.68,1.68,0,0,0,1.09,7.2v-2"/><path class="cls-1" d="M9.21,5.18a4.06,4.06,0,1,0-8.13,0"/><path class="cls-1" d="M4.25,1.11a.9.9,0,0,1,1.81,0"/></g></g></g></svg>