<svg xmlns="http://www.w3.org/2000/svg" viewBox="0 0 9.19 8.35"><defs><style>.cls-1{fill:#fff;}</style></defs><title>Recurso 18</title><g id="Capa_2" data-name="Capa 2"><g id="iconos"><g id="store"><path class="cls-1" d="M1.18,8.35h2.6a.17.17,0,1,0,0-.34H1.18a.84.84,0,0,1-.84-.84V1.78H1.5V2.5a.17.17,0,1,0,.34,0V1.78H4.12V2.5a.17.17,0,1,0,.34,0V1.78H5.62v.38a.17.17,0,1,0,.34,0V1.61a.17.17,0,0,0-.17-.17H4.46a1.48,1.48,0,0,0-3,0H.17A.17.17,0,0,0,0,1.61V7.16A1.18,1.18,0,0,0,1.18,8.35ZM3,.34a1.14,1.14,0,0,1,1.14,1.1H1.84A1.14,1.14,0,0,1,3,.34Zm0,0"/><path class="cls-1" d="M5.57,3.74V4h-1a.17.17,0,0,0-.17.17V7.55a.8.8,0,0,0,.8.8H8.39a.8.8,0,0,0,.8-.8V4.13A.17.17,0,0,0,9,4H8V3.73a1.21,1.21,0,0,0-2.41,0Zm3.29.57V7.55A.46.46,0,0,1,8.39,8H5.15a.46.46,0,0,1-.46-.46V4.31h.87v.48a.17.17,0,0,0,.34,0V4.31H7.64v.48a.17.17,0,0,0,.34,0V4.31ZM6.77,2.87a.87.87,0,0,1,.87.87V4H5.91V3.74a.87.87,0,0,1,.87-.87Zm0,0"/></g></g></g></svg>